Patient4_TMGait_0pt7_01_left_39_GRF.mot
version=1
nRows=78
nColumns=19
inDegrees=no
endheader
time	F1x	F1y	F1z	M1x	M1y	M1z	F2x	F2y	F2z	M2x	M2y	M2z	EC1x	EC1y	EC1z	EC2x	EC2y	EC2z
45.12	20.7909	-14.4294	-6.0344	5.6136	7.7673	-24.9671	-46.3793	726.9638	-108.3185	271.9217	129.1488	838.231	-0.0592	0.0182	-0.0073	-0.0462	0.0165	0.9585
45.1317	13.9081	-8.8347	-4.0403	3.5148	5.0748	-15.7297	-46.5912	718.6359	-96.1799	267.216	119.3316	828.1722	-0.0592	0.0182	-0.0073	-0.0462	0.0165	0.9585
45.1434	8.0789	-4.111	-2.3104	1.7192	2.7839	-7.9294	-45.7145	710.3321	-85.262	262.9143	109.85	816.4853	-0.0592	0.0182	-0.0073	-0.0462	0.0165	0.9585
45.1551	3.5856	-0.48057	-0.96901	0.33012	1.0196	-1.9336	-43.5566	703.1974	-76.0799	259.5916	101.0131	804.3166	-0.0592	0.0182	-0.0073	-0.0462	0.0165	0.9585
45.1669	0.4805	2.0377	-0.017781	-0.64542	-0.21164	2.2021	-39.9899	698.302	-68.7587	257.6868	92.9048	792.8955	-0.0592	0.0182	-0.0073	-0.0462	0.0165	0.9585
45.1786	-1.5009	3.6288	0.58702	-1.2671	-0.99845	4.8266	-34.9291	696.6563	-63.0696	257.5399	85.357	783.4616	-0.0592	0.0182	-0.0073	-0.0462	0.0165	0.9585
45.1903	-2.5787	4.461	0.93149	-1.6008	-1.4438	6.1942	-28.4203	699.0193	-58.7659	259.3514	78.2592	777.0629	-0.0592	0.0182	-0.0073	-0.0462	0.0165	0.9585
45.202	-3.0918	4.7619	1.0896	-1.7241	-1.6686	6.7119	-20.6683	705.7532	-55.5181	263.1483	71.4776	774.3915	-0.0592	0.0182	-0.0073	-0.0462	0.0165	0.9585
45.2137	-3.2142	4.6239	1.1472	-1.6782	-1.7667	6.5404	-12.049	716.5918	-53.1504	268.6976	65.0728	775.5156	-0.0592	0.0182	-0.0073	-0.0462	0.0165	0.9585
45.2254	-3.1932	4.1583	1.1483	-1.5011	-1.8188	5.9113	-3.0745	730.5028	-51.5554	275.4751	59.2011	779.7227	-0.0592	0.0182	-0.0073	-0.0462	0.0165	0.9585
45.2371	-3.0875	3.3383	1.1459	-1.1935	-1.87	4.8039	5.7032	745.8836	-50.7336	282.7471	54.1181	785.7102	-0.0592	0.0182	-0.0073	-0.0462	0.0165	0.9585
45.2489	-3.0205	2.1653	1.1425	-0.75635	-1.9402	3.2751	13.783	760.8895	-50.658	289.708	50.0223	791.898	-0.0592	0.0182	-0.0073	-0.0462	0.0165	0.9585
45.2606	-2.9523	0.56843	1.1537	-0.17457	-2.0193	1.2146	20.7343	773.6082	-51.2222	295.5666	46.9908	796.5789	-0.0592	0.0182	-0.0073	-0.0462	0.0165	0.9585
45.2723	-2.8866	-1.4277	1.1501	0.54062	-2.0623	-1.3033	26.2996	782.3382	-52.285	299.6404	44.9981	798.1884	-0.0592	0.0182	-0.0073	-0.0462	0.0165	0.9585
45.284	-2.6816	-3.7522	1.116	1.3532	-1.9916	-4.2268	30.361	785.7433	-53.6045	301.4223	43.8651	795.4502	-0.0592	0.0182	-0.0073	-0.0462	0.0165	0.9585
45.2957	-2.2392	-6.1102	0.97641	2.1587	-1.6772	-7.1739	32.9148	783.0559	-54.9989	300.6427	43.4211	787.6094	-0.0592	0.0182	-0.0073	-0.0462	0.0165	0.9585
45.3074	-1.3072	-7.9942	0.66313	2.7754	-0.95289	-9.5628	34.0831	774.228	-56.2623	297.3178	43.4352	774.5723	-0.0592	0.0182	-0.0073	-0.0462	0.0165	0.9585
45.3191	0.29528	-8.4929	0.063852	2.8885	0.37533	-10.2551	34.0148	759.9386	-57.3268	291.7457	43.7882	756.9347	-0.0592	0.0182	-0.0073	-0.0462	0.0165	0.9585
45.3309	2.8281	-6.3109	-0.89881	2.046	2.4863	-7.6709	32.9911	741.6388	-58.1475	284.5132	44.3467	736.0265	-0.0592	0.0182	-0.0073	-0.0462	0.0165	0.9585
45.3426	6.4068	0.31086	-2.3093	-0.35705	5.5159	0.38953	31.3409	721.3026	-58.7824	276.3994	45.0478	713.6879	-0.0592	0.0182	-0.0073	-0.0462	0.0165	0.9585
45.3543	11.0503	13.4422	-4.1527	-5.0295	9.4473	16.4612	29.4647	701.06	-59.2751	268.24	45.7822	691.8701	-0.0592	0.0182	-0.0073	-0.0462	0.0165	0.9585
45.366	16.4138	35.2499	-6.3283	-12.7025	14.0293	43.2579	27.7719	682.8215	-59.6779	260.7727	46.4321	672.315	-0.0592	0.0182	-0.0073	-0.0462	0.0165	0.9585
45.3777	21.7518	67.4444	-8.5304	-23.9404	18.6139	82.9161	26.6424	667.8343	-59.9806	254.4843	46.8348	656.1067	-0.0592	0.0182	-0.0073	-0.0462	0.0165	0.9585
45.3894	25.589	110.5211	-10.2052	-38.8678	21.9877	136.1396	26.3285	656.481	-60.1069	249.5283	46.815	643.5282	-0.0592	0.0182	-0.0073	-0.0462	0.0165	0.9585
45.4011	25.8188	162.7092	-10.4548	-56.8222	22.3139	200.8638	26.966	648.1125	-59.9211	245.6768	46.1846	633.8662	-0.0592	0.0182	-0.0073	-0.0462	0.0165	0.9585
45.4129	20.8132	220.0988	-8.3024	-76.3821	17.8402	272.4342	28.557	641.133	-59.2406	242.35	44.7614	625.5334	-0.0592	0.0182	-0.0073	-0.0462	0.0165	0.9585
45.4246	11.3455	277.4377	-2.985	-95.6815	7.9028	344.3598	31.017	633.2837	-57.9339	238.726	42.4478	616.3062	-0.0592	0.0182	-0.0073	-0.0462	0.0165	0.9585
45.4363	-0.37663	329.0005	5.3429	-112.7878	-6.4935	409.2609	34.1177	622.1341	-55.9187	233.9159	39.2478	603.848	-0.0592	0.0182	-0.0073	-0.0462	0.0165	0.9585
45.448	-12.1516	370.8418	15.2286	-126.4679	-22.761	461.8079	37.5381	605.3829	-53.1967	227.0819	35.2878	585.9763	-0.0592	0.0182	-0.0073	-0.0462	0.0165	0.9585
45.4597	-22.6505	402.6262	24.8256	-136.7337	-38.1198	501.3282	40.8527	581.3651	-49.7854	217.6122	30.7489	561.1642	-0.0592	0.0182	-0.0073	-0.0462	0.0165	0.9585
45.4714	-31.26	426.7599	32.7407	-144.5079	-50.6833	530.6911	43.5873	549.257	-45.7864	205.2056	25.9099	528.6854	-0.0592	0.0182	-0.0073	-0.0462	0.0165	0.9585
45.4831	-37.9516	446.4746	38.3049	-150.9496	-59.6137	553.9594	45.2061	509.1441	-41.3208	189.8951	21.0821	488.7219	-0.0592	0.0182	-0.0073	-0.0462	0.0165	0.9585
45.4949	-42.7161	464.4577	41.1764	-156.9978	-64.5728	574.4292	45.233	461.908	-36.5388	172.0093	16.5922	442.2033	-0.0592	0.0182	-0.0073	-0.0462	0.0165	0.9585
45.5066	-45.6265	482.241	41.8854	-163.1451	-66.2294	594.0673	43.276	409.1696	-31.5877	152.1525	12.7212	390.7659	-0.0592	0.0182	-0.0073	-0.0462	0.0165	0.9585
45.5183	-46.7194	500.726	41.1906	-169.6329	-65.5697	613.948	39.268	353.2639	-26.6754	131.1843	9.6953	336.6751	-0.0592	0.0182	-0.0073	-0.0462	0.0165	0.9585
45.53	-46.1794	520.4624	40.2064	-176.5458	-63.9928	634.8187	33.463	296.9255	-22.0139	110.1136	7.6063	282.5304	-0.0592	0.0182	-0.0073	-0.0462	0.0165	0.9585
45.5417	-44.3192	541.6825	39.8277	-183.8743	-62.6979	657.004	26.5052	242.9492	-17.7996	89.9678	6.3837	230.9186	-0.0592	0.0182	-0.0073	-0.0462	0.0165	0.9585
45.5534	-41.7074	564.2853	40.747	-191.5107	-62.6812	680.4849	19.2271	193.6868	-14.1363	71.6108	5.7943	183.9858	-0.0592	0.0182	-0.0073	-0.0462	0.0165	0.9585
45.5651	-38.8398	587.9506	43.1698	-199.3209	-64.3442	704.9578	12.4258	150.6356	-11.0524	55.5958	5.5573	143.044	-0.0592	0.0182	-0.0073	-0.0462	0.0165	0.9585
45.5769	-36.1165	612.5122	46.7655	-207.2584	-67.4294	730.2791	6.6477	114.3993	-8.5136	42.139	5.4297	108.598	-0.0592	0.0182	-0.0073	-0.0462	0.0165	0.9585
45.5886	-33.7323	637.781	50.9252	-215.3076	-71.283	756.2515	2.1298	84.7481	-6.4441	31.1555	5.2474	80.4026	-0.0592	0.0182	-0.0073	-0.0462	0.0165	0.9585
45.6003	-31.7961	663.398	54.9493	-223.4037	-75.1247	782.4664	-1.1402	61.0089	-4.7781	22.3872	4.9541	57.8478	-0.0592	0.0182	-0.0073	-0.0462	0.0165	0.9585
45.612	-30.3173	688.6143	58.5005	-231.3423	-78.5325	808.0432	-3.2808	42.2775	-3.4418	15.4938	4.5263	40.0859	-0.0592	0.0182	-0.0073	-0.0462	0.0165	0.9585
45.6237	-29.2423	712.4583	61.4172	-238.8291	-81.2878	831.8501	-4.4516	27.7215	-2.3681	10.1585	3.9627	26.3431	-0.0592	0.0182	-0.0073	-0.0462	0.0165	0.9585
45.6354	-28.4065	733.9712	63.8187	-245.554	-83.451	852.7576	-4.7498	16.6721	-1.5154	6.1258	3.2692	15.968	-0.0592	0.0182	-0.0073	-0.0462	0.0165	0.9585
45.6471	-27.6431	752.3972	65.7679	-251.2731	-85.0396	869.8732	-4.3255	8.6678	-0.85096	3.2161	2.478	8.5038	-0.0592	0.0182	-0.0073	-0.0462	0.0165	0.9585
45.6589	-26.7464	767.35	67.3582	-255.8582	-86.0978	882.7283	-3.4997	3.3598	-0.36395	1.2925	1.7037	3.5852	-0.0592	0.0182	-0.0073	-0.0462	0.0165	0.9585
45.6706	-25.5639	778.7346	68.621	-259.2814	-86.6242	891.2257	-2.5857	0.26635	-0.044143	0.17208	1.0534	0.76	-0.0592	0.0182	-0.0073	-0.0462	0.0165	0.9585
45.6823	-23.9815	786.7163	69.5769	-261.6025	-86.6205	895.5557	-1.7369	-1.1971	0.15155	-0.35899	0.55183	-0.54325	-0.0592	0.0182	-0.0073	-0.0462	0.0165	0.9585
45.694	-21.9547	791.6112	70.251	-262.9276	-86.1075	896.1158	-1.0589	-1.5607	0.25273	-0.49445	0.20668	-0.80953	-0.0592	0.0182	-0.0073	-0.0462	0.0165	0.9585
45.7057	-19.4683	793.7039	70.6505	-263.3543	-85.1037	893.2751	-0.55031	-1.2793	0.29179	-0.39507	-0.0085142	-0.47952	-0.0592	0.0182	-0.0073	-0.0462	0.0165	0.9585
45.7174	-16.5765	793.2411	70.8716	-262.9599	-83.7331	887.386	-0.21645	-0.68058	0.28573	-0.17675	-0.11428	0.13678	-0.0592	0.0182	-0.0073	-0.0462	0.0165	0.9585
45.7291	-13.3342	790.423	70.9309	-261.8128	-82.0493	878.7385	-0.0092375	0.0033287	0.2479	0.080152	-0.14206	0.81184	-0.0592	0.0182	-0.0073	-0.0462	0.0165	0.9585
45.7409	-9.8592	785.4908	70.8727	-259.993	-80.1471	867.691	0.094327	0.63568	0.19821	0.3273	-0.12467	1.4284	-0.0592	0.0182	-0.0073	-0.0462	0.0165	0.9585
45.7526	-6.2879	778.7261	70.6403	-257.6004	-78.0246	854.6178	0.13428	1.1526	0.13718	0.54042	-0.078105	1.922	-0.0592	0.0182	-0.0073	-0.0462	0.0165	0.9585
45.7643	-2.7883	770.4654	70.2045	-254.7467	-75.7138	839.9788	0.12959	1.5505	0.079736	0.71508	-0.022424	2.2941	-0.0592	0.0182	-0.0073	-0.0462	0.0165	0.9585
45.776	0.48888	761.0939	69.5146	-251.5583	-73.2163	824.2488	0.095569	1.8294	0.01897	0.84834	0.044213	2.5398	-0.0592	0.0182	-0.0073	-0.0462	0.0165	0.9585
45.7877	3.4127	751.0291	68.5556	-248.1655	-70.5594	807.9446	0.037344	2.0168	-0.028691	0.94405	0.10628	2.6915	-0.0592	0.0182	-0.0073	-0.0462	0.0165	0.9585
45.7994	5.9616	740.712	67.337	-244.7042	-67.7619	791.5784	-0.045027	2.1036	-0.071887	0.99476	0.17226	2.7347	-0.0592	0.0182	-0.0073	-0.0462	0.0165	0.9585
45.8111	8.1629	730.676	65.8646	-241.3354	-64.8258	775.7328	-0.14019	2.0706	-0.10457	0.98858	0.23747	2.6458	-0.0592	0.0182	-0.0073	-0.0462	0.0165	0.9585
45.8229	10.1261	721.4738	64.2115	-238.2233	-61.7943	760.9851	-0.25253	1.8652	-0.14757	0.90066	0.32487	2.3562	-0.0592	0.0182	-0.0073	-0.0462	0.0165	0.9585
45.8346	11.9727	713.6815	62.4377	-235.5342	-58.7012	747.929	-0.37458	1.4082	-0.19814	0.69643	0.4344	1.7653	-0.0592	0.0182	-0.0073	-0.0462	0.0165	0.9585
45.8463	13.8337	707.7503	60.6922	-233.3943	-55.6597	737.0105	-0.49284	0.61116	-0.26355	0.33607	0.56997	0.77493	-0.0592	0.0182	-0.0073	-0.0462	0.0165	0.9585
45.858	15.8116	704.0388	59.0707	-231.8987	-52.7343	728.5719	-0.58715	-0.61904	-0.34274	-0.2199	0.7189	-0.73427	-0.0592	0.0182	-0.0073	-0.0462	0.0165	0.9585
45.8697	18.011	702.6843	57.7144	-231.0713	-50.0247	722.7131	-0.62648	-2.3494	-0.42946	-0.99934	0.8555	-2.8559	-0.0592	0.0182	-0.0073	-0.0462	0.0165	0.9585
45.8814	20.5029	703.6291	56.6849	-230.874	-47.5671	719.3513	-0.56045	-4.586	-0.51596	-1.999	0.94062	-5.6075	-0.0592	0.0182	-0.0073	-0.0462	0.0165	0.9585
45.8931	23.3558	706.5753	56.0661	-231.1971	-45.4182	718.1506	-0.32506	-7.1843	-0.57383	-3.1512	0.90881	-8.8186	-0.0592	0.0182	-0.0073	-0.0462	0.0165	0.9585
45.9049	26.5641	711.0288	55.8878	-231.8739	-43.6065	718.6085	0.16041	-9.7936	-0.56601	-4.2939	0.67547	-12.057	-0.0592	0.0182	-0.0073	-0.0462	0.0165	0.9585
45.9166	30.102	716.4046	56.1557	-232.7158	-42.1411	720.1068	0.98872	-11.7153	-0.4349	-5.1184	0.1315	-14.4559	-0.0592	0.0182	-0.0073	-0.0462	0.0165	0.9585
45.9283	33.9249	722.1254	56.8508	-233.5436	-41.0167	722.0486	2.2374	-11.8387	-0.10582	-5.1381	-0.84495	-14.6511	-0.0592	0.0182	-0.0073	-0.0462	0.0165	0.9585
45.94	38.0201	727.7061	57.9384	-234.2188	-40.2062	723.8992	3.9323	-8.5535	0.50441	-3.6541	-2.3604	-10.6592	-0.0592	0.0182	-0.0073	-0.0462	0.0165	0.9585
45.9517	42.3693	732.8588	59.3672	-234.6735	-39.6676	725.3369	6.0259	0.22262	1.4852	0.23687	-4.4875	0.098358	-0.0592	0.0182	-0.0073	-0.0462	0.0165	0.9585
45.9634	46.9825	737.3194	61.019	-234.8632	-39.2837	726.0532	8.301	16.922	2.9042	7.5839	-7.2001	20.6549	-0.0592	0.0182	-0.0073	-0.0462	0.0165	0.9585
45.9751	51.8411	740.672	62.7356	-234.7011	-38.9096	725.6156	10.3381	43.9882	4.775	19.4316	-10.306	54.0804	-0.0592	0.0182	-0.0073	-0.0462	0.0165	0.9585
45.9869	56.8942	742.0074	64.283	-233.9521	-38.3409	723.151	11.3848	83.207	7.0021	36.5368	-13.3361	102.6767	-0.0592	0.0182	-0.0073	-0.0462	0.0165	0.9585
45.9986	62.0063	739.8138	65.3639	-232.1916	-37.3475	717.2669	10.3309	134.7329	9.3	58.9353	-15.4294	166.7463	-0.0592	0.0182	-0.0073	-0.0462	0.0165	0.9585
46.0103	66.9337	732.0755	65.6256	-228.8327	-35.6905	706.1252	5.76	195.7493	11.1349	85.3595	-15.3103	242.9342	-0.0592	0.0182	-0.0073	-0.0462	0.0165	0.9585
46.022	71.3326	716.678	64.7256	-223.249	-33.1815	687.8455	-3.2963	259.2848	11.6912	112.727	-11.5727	322.7202	-0.0592	0.0182	-0.0073	-0.0462	0.0165	0.9585
